<svg xmlns="http://www.w3.org/2000/svg" viewBox="0 0 121 121"><defs><style>.cls-1{fill:#e4e8f8}.cls-2{fill:none;stroke:#204ecf;stroke-linejoin:round}</style></defs><g id="Layer_2" data-name="Layer 2"><g id="Icons"><path class="cls-1" d="M38.3 44.9h44.4v6.33H38.3zM.5 103.4h44.4v6.33H.5zM76.1 103.4h44.4v6.33H76.1z"/><path class="cls-2" d="M.5 59h44.4v44.4H.5zM38.3.5h44.4v44.4H38.3zM76.1 59h44.4v44.4H76.1zM34 22.7H17.7v31.68M87 22.7h16.3v31.68M17.7 103.4v17.1h85.6v-12.1"/><path class="cls-2" d="M109.6 114.7l-6.3-6.3-6.3 6.3M93.3 16.4L87 22.7l6.3 6.3M11.4 48.07l6.3 6.31 6.3-6.31M4.5 92.83l7.38-7.37 5.29 5.29 13.29-13.29 10.29 10.29"/><circle class="cls-2" cx="11.87" cy="73.46" r="4.92"/><path class="cls-2" d="M44.9 14.07h31.2M44.9 19.82h31.2M44.9 25.57h31.2M44.9 31.32h12.35M110.85 74.05L93.24 91.66l-8.8 2.44 2.44-8.8 17.61-17.61a4.51 4.51 0 0 1 6.36 0 4.51 4.51 0 0 1 0 6.36zM93.24 91.66l-4.64-4.63M108.75 76.14l-4.63-4.63M85.75 96.02h23"/></g></g></svg>