<svg viewBox="0 0 121 121" xmlns="http://www.w3.org/2000/svg"><path d="m60.5 80.44a19.94 19.94 0 0 1 -19.94-19.94v8.81a19.94 19.94 0 0 0 39.88 0v-8.81a19.94 19.94 0 0 1 -19.94 19.94z" fill="#e4e8f8"/><g fill="none" stroke="#204ecf" stroke-linejoin="round"><path d="m53.11 36.51c0-.75-.08-1.51-.08-2.28a33.74 33.74 0 1 1 61.43 19.27m-6.52 7a33.62 33.62 0 0 1 -21.17 7.5c-.76 0-1.52 0-2.27-.08m-48-.03c-.75 0-1.51.08-2.27.08a33.74 33.74 0 1 1 19.14-61.52"/><path d="m60.5 13.06a33.62 33.62 0 0 1 7.5 21.17c0 .76 0 1.52-.08 2.27m16.58 16.61c.75 0 1.51-.08 2.27-.08a33.74 33.74 0 1 1 -19.27 61.43m-7-6.52a33.62 33.62 0 0 1 -7.5-21.17c0-.76 0-1.52.08-2.27"/><path d="m67.89 84.49c0 .75.08 1.51.08 2.28a33.74 33.74 0 1 1 -61.56-19.08m6.65-7.19a33.62 33.62 0 0 1 21.17-7.5c.76 0 1.52 0 2.27.08"/><circle cx="60.5" cy="60.5" r="19.94"/><path d="m52.27 59.2 6.93 6.94 10.39-10.4"/></g></svg>