<svg xmlns="http://www.w3.org/2000/svg" viewBox="0 0 121 121"><defs><style>.cls-1{fill:#e4e8f8}.cls-2{fill:none;stroke:#204ecf;stroke-linejoin:round}</style></defs><g id="Layer_2" data-name="Layer 2"><g id="Icons"><circle class="cls-1" cx="67.02" cy="78.14" r="3.71"/><circle class="cls-1" cx="45.5" cy="60.5" r="3.71"/><circle class="cls-1" cx="108" cy="22" r="3.71"/><path class="cls-1" d="M67 65.14a13 13 0 1 0 13 13 13 13 0 0 0-13-13zm0 23a10 10 0 1 1 10-10 10 10 0 0 1-10 9.95zM108 9a13 13 0 1 0 13 13 13 13 0 0 0-13-13zm0 23a10 10 0 1 1 10-10 10 10 0 0 1-10 10z"/><path class="cls-1" d="M45.5 47.5a13 13 0 1 0 13 13 13 13 0 0 0-13-13zm0 23a10 10 0 1 1 10-10 10 10 0 0 1-10 9.96zM.5 112.62H121v7.88H.5z"/><path class="cls-2" d="M.5 0v120.5H121M8.74 109.52L39.5 68.5M73.02 70.14l29.47-39.8M53.23 66.84l6.06 4.96"/><circle class="cls-2" cx="108" cy="22" r="7"/><circle class="cls-2" cx="67.02" cy="78.14" r="7"/><circle class="cls-2" cx="45.5" cy="60.5" r="7"/></g></g></svg>