<svg xmlns="http://www.w3.org/2000/svg" viewBox="0 0 121 121"><defs><style>.cls-1{fill:#e4e8f8}.cls-2{fill:none;stroke:#204ecf;stroke-linejoin:round}</style></defs><g id="Layer_2" data-name="Layer 2"><g id="Icons"><path class="cls-1" d="M60.5 65.71a11.25 11.25 0 0 1-8.15-3.52v3.16a11.2 11.2 0 0 0 16.3 0v-3.16a11.25 11.25 0 0 1-8.15 3.52zM32.67 16.63a4.34 4.34 0 0 1-4.34-4.34v2.77a4.34 4.34 0 0 0 8.67 0v-2.77a4.33 4.33 0 0 1-4.33 4.34zM60.5 9.21a4.33 4.33 0 0 1-4.33-4.33v2.76a4.33 4.33 0 0 0 8.66 0V4.88a4.33 4.33 0 0 1-4.33 4.33zM88.33 16.63A4.33 4.33 0 0 1 84 12.29v2.77a4.34 4.34 0 0 0 8.67 0v-2.77a4.34 4.34 0 0 1-4.34 4.34zM108.71 37a4.33 4.33 0 0 1-4.34-4.33v2.76a4.34 4.34 0 1 0 8.67 0v-2.76a4.33 4.33 0 0 1-4.33 4.33zM116.17 64.83a4.33 4.33 0 0 1-4.34-4.33v2.76a4.34 4.34 0 1 0 8.67 0V60.5a4.33 4.33 0 0 1-4.33 4.33z"/><circle class="cls-1" cx="32.67" cy="12.29" r="2.18"/><circle class="cls-1" cx="60.5" cy="4.83" r="2.18"/><circle class="cls-1" cx="88.33" cy="12.29" r="2.18"/><circle class="cls-1" cx="108.71" cy="32.67" r="2.18"/><circle class="cls-1" cx="116.17" cy="60.5" r="2.18"/><path class="cls-1" d="M60.5 102.67A42.17 42.17 0 0 1 18.33 60.5v2.38a42.17 42.17 0 0 0 84.34 0V60.5a42.17 42.17 0 0 1-42.17 42.17z"/><path class="cls-1" d="M38.29 78.2l12.53-7.06a3 3 0 0 0 1.53-2.62v-6.33a11 11 0 0 1-1.67-2.25 24.42 24.42 0 0 1-2.45-6.35 2.54 2.54 0 0 1-2.5-2.06L45 48a2.28 2.28 0 0 1 2.23-2.69h.3v-2.56A12.94 12.94 0 0 1 60.5 29.81h8.17a2.61 2.61 0 0 1-.32 2.65 12.94 12.94 0 0 1 5.09 10.29v2.54h.3A2.28 2.28 0 0 1 76 48l-.68 3.55a2.54 2.54 0 0 1-2.5 2.06 24.42 24.42 0 0 1-2.45 6.35 11 11 0 0 1-1.67 2.25v6.33a3 3 0 0 0 1.53 2.62l12.48 7.04a13.68 13.68 0 0 1 4.94 4.8 35.24 35.24 0 1 0-54.3 0 13.68 13.68 0 0 1 4.94-4.8z"/><circle class="cls-2" cx="60.5" cy="60.5" r="42.17"/><path class="cls-2" d="M112.57 40.79a54.69 54.69 0 0 1 2.87 10.71M95.74 17.41a56 56 0 0 1 7.85 7.85M69.47 5.55a55.89 55.89 0 0 1 10.74 2.87M40.79 8.43A54.69 54.69 0 0 1 51.5 5.56M52.35 62.19v6.33a3 3 0 0 1-1.53 2.62L38.29 78.2a13.71 13.71 0 0 0-6.18 7.31M68.65 62.19v6.33a3 3 0 0 0 1.53 2.62l12.53 7.06a13.71 13.71 0 0 1 6.18 7.31M56.54 71.26l2.24 3.36h1.72M64.46 71.26l-2.24 3.36H60.5M62.22 74.62l4.03 19.29-5.75 4.29-5.74-4.29 4.02-19.29"/><circle class="cls-2" cx="108.71" cy="32.67" r="4.33"/><circle class="cls-2" cx="116.17" cy="60.5" r="4.33"/><circle class="cls-2" cx="108.71" cy="88.33" r="4.33"/><circle class="cls-2" cx="88.33" cy="108.71" r="4.33"/><circle class="cls-2" cx="60.5" cy="116.17" r="4.33"/><circle class="cls-2" cx="32.67" cy="108.71" r="4.33"/><circle class="cls-2" cx="12.29" cy="88.33" r="4.33"/><circle class="cls-2" cx="4.83" cy="60.5" r="4.33"/><circle class="cls-2" cx="12.29" cy="32.67" r="4.33"/><circle class="cls-2" cx="32.67" cy="12.29" r="4.33"/><circle class="cls-2" cx="60.5" cy="4.83" r="4.33"/><circle class="cls-2" cx="88.33" cy="12.29" r="4.33"/><path class="cls-2" d="M73.74 45.29h-.3v-2.54a12.94 12.94 0 0 0-5.09-10.29 2.61 2.61 0 0 0 .32-2.65H60.5a12.94 12.94 0 0 0-12.94 12.94v2.54h-.3A2.28 2.28 0 0 0 45 48l.68 3.55a2.54 2.54 0 0 0 2.5 2.06 24.42 24.42 0 0 0 2.45 6.35 11.24 11.24 0 0 0 19.64 0 24.42 24.42 0 0 0 2.45-6.35 2.54 2.54 0 0 0 2.5-2.06L76 48a2.28 2.28 0 0 0-2.26-2.71z"/></g></g></svg>