<svg xmlns="http://www.w3.org/2000/svg" viewBox="0 0 121 121"><defs><style>.cls-1{fill:#e4e8f8}.cls-2{fill:none;stroke:#204ecf;stroke-linejoin:round}.cls-3{fill:#204ecf}</style></defs><g id="Layer_2" data-name="Layer 2"><g id="Icons"><path class="cls-1" d="M73.76 82.9a56.18 56.18 0 0 0-.68 8.7 11.5 11.5 0 0 1-11.46 11.47h-1.74A11.51 11.51 0 0 1 48.42 91.6a56.18 56.18 0 0 0-.68-8.7zM60.75 14.73c-18.53 0-33.6 13.85-33.6 30.87a29 29 0 0 0 6.06 17.69c3.63 4.76 8.08 10.37 10.11 16.4a4.66 4.66 0 0 0 4.42 3.21A51.22 51.22 0 0 0 38 59.65a23.06 23.06 0 0 1-4.83-14c0-13.74 12.36-24.87 27.6-24.87s27.6 11.13 27.6 24.87a23.06 23.06 0 0 1-4.83 14 50.07 50.07 0 0 0-7.83 15.1 54 54 0 0 0-1.93 8.15 4.66 4.66 0 0 0 4.42-3.21c2-6 6.48-11.64 10.11-16.4a29 29 0 0 0 6.04-17.69c0-17.02-15.07-30.87-33.6-30.87z"/><path class="cls-2" d="M88.35 45.6c0-13.74-12.36-24.87-27.6-24.87s-27.6 11.13-27.6 24.87a23.06 23.06 0 0 0 4.83 14 52.6 52.6 0 0 1 10.44 32 11.5 11.5 0 0 0 11.46 11.47h1.74A11.5 11.5 0 0 0 73.08 91.6a52.6 52.6 0 0 1 10.44-31.95 23.06 23.06 0 0 0 4.83-14.05zM47.74 82.9h26.07"/><path class="cls-2" d="M63.57 76.53l4.53-21.48a4.17 4.17 0 0 1 7.77-.94c1.83 3.69-2.54 7.37-6 5.07l-2.3-1.5-6.76-4.44-2.5-1.64a4.28 4.28 0 0 1 1-7.65 4.5 4.5 0 0 1 3.07 0 4.27 4.27 0 0 1 1 7.65l-2.49 1.64L54 57.68l-2.29 1.5c-3.5 2.3-7.87-1.38-6-5.07a4.17 4.17 0 0 1 7.77.94L58 76.53M107.1 22.7a60 60 0 0 1 .47 75"/><path class="cls-3" d="M107.84 89.34a.51.51 0 0 1 .46.54l-.62 7.63 7.17-2.67a.5.5 0 0 1 .35.94l-7.91 2.94a.52.52 0 0 1-.48-.07.5.5 0 0 1-.19-.44l.68-8.41a.46.46 0 0 1 .1-.26.51.51 0 0 1 .44-.2z"/><path class="cls-2" d="M22.7 13.9a60 60 0 0 1 75-.47"/><path class="cls-3" d="M89.34 13.16a.51.51 0 0 1 .54-.46l7.63.62-2.67-7.17a.5.5 0 0 1 .94-.35l2.94 7.91a.52.52 0 0 1-.07.48.5.5 0 0 1-.44.19l-8.41-.68a.46.46 0 0 1-.26-.1.51.51 0 0 1-.2-.44z"/><path class="cls-2" d="M13.9 98.3a60 60 0 0 1-.47-75"/><path class="cls-3" d="M13.16 31.66a.51.51 0 0 1-.46-.54l.62-7.63-7.17 2.67a.5.5 0 0 1-.35-.94l7.91-2.94a.52.52 0 0 1 .48.07.5.5 0 0 1 .19.44l-.68 8.41a.46.46 0 0 1-.1.26.51.51 0 0 1-.44.2z"/><path class="cls-2" d="M98.3 107.1a60 60 0 0 1-75 .47"/><path class="cls-3" d="M31.66 107.84a.51.51 0 0 1-.54.46l-7.63-.62 2.67 7.17a.5.5 0 0 1-.94.35l-2.94-7.91a.52.52 0 0 1 .07-.48.5.5 0 0 1 .44-.19l8.41.68a.46.46 0 0 1 .26.1.51.51 0 0 1 .2.44z"/></g></g></svg>